HIERARCHY
ROOT Hips
{
  OFFSET 8.91173 92.5249 -21.9562
  CHANNELS 6 Xposition Yposition Zposition Zrotation Xrotation Yrotation
  JOINT Spine
  {
    OFFSET 0 14.0932 -1.51142
    CHANNELS 6 Xposition Yposition Zposition Zrotation Xrotation Yrotation
    JOINT Spine1
    {
      OFFSET 0 8.6966 0
      CHANNELS 6 Xposition Yposition Zposition Zrotation Xrotation Yrotation
      JOINT Spine2
      {
        OFFSET 0 8.6966 0
        CHANNELS 6 Xposition Yposition Zposition Zrotation Xrotation Yrotation
        JOINT Spine3
        {
          OFFSET 0 8.6966 0
          CHANNELS 6 Xposition Yposition Zposition Zrotation Xrotation Yrotation
          JOINT Neck
          {
            OFFSET 0 11.1813 1.11813
            CHANNELS 6 Xposition Yposition Zposition Zrotation Xrotation Yrotation
            JOINT Neck1
            {
              OFFSET 0 5.70631 0
              CHANNELS 6 Xposition Yposition Zposition Zrotation Xrotation Yrotation
              JOINT Head
              {
                OFFSET 0 5.70631 0
                CHANNELS 6 Xposition Yposition Zposition Zrotation Xrotation Yrotation
                End Site
                {
                  OFFSET 0 9.71257 0
                }
              }
            }
          }
          JOINT RightShoulder
          {
            OFFSET 0 7.98668 5.19711
            CHANNELS 6 Xposition Yposition Zposition Zrotation Xrotation Yrotation
            JOINT RightArm
            {
              OFFSET 0 18.3158 0
              CHANNELS 6 Xposition Yposition Zposition Zrotation Xrotation Yrotation
              JOINT RightForeArm
              {
                OFFSET 0 28.8742 0
                CHANNELS 6 Xposition Yposition Zposition Zrotation Xrotation Yrotation
                JOINT RightHand
                {
                  OFFSET 0 23.8772 0
                  CHANNELS 6 Xposition Yposition Zposition Zrotation Xrotation Yrotation
                  JOINT RightHandThumb1
                  {
                    OFFSET -2.41094 4.67063 3.47303
                    CHANNELS 6 Xposition Yposition Zposition Zrotation Xrotation Yrotation
                    JOINT RightHandThumb2
                    {
                      OFFSET 0 3.95207 0
                      CHANNELS 6 Xposition Yposition Zposition Zrotation Xrotation Yrotation
                      JOINT RightHandThumb3
                      {
                        OFFSET 0 2.15568 0
                        CHANNELS 6 Xposition Yposition Zposition Zrotation Xrotation Yrotation
                        End Site
                        {
                          OFFSET 0 1.91616 0
                        }
                      }
                    }
                  }
                  JOINT RightHandIndex1
                  {
                    OFFSET 0 12.455 2.51496
                    CHANNELS 6 Xposition Yposition Zposition Zrotation Xrotation Yrotation
                    JOINT RightHandIndex2
                    {
                      OFFSET 0 4.79039 0
                      CHANNELS 6 Xposition Yposition Zposition Zrotation Xrotation Yrotation
                      JOINT RightHandIndex3
                      {
                        OFFSET 0 2.63472 0
                        CHANNELS 6 Xposition Yposition Zposition Zrotation Xrotation Yrotation
                        End Site
                        {
                          OFFSET 0 1.91616 0
                        }
                      }
                    }
                  }
                  JOINT RightHandMiddle1
                  {
                    OFFSET 0 12.455 -0.0798399
                    CHANNELS 6 Xposition Yposition Zposition Zrotation Xrotation Yrotation
                    JOINT RightHandMiddle2
                    {
                      OFFSET 0 5.38919 0
                      CHANNELS 6 Xposition Yposition Zposition Zrotation Xrotation Yrotation
                      JOINT RightHandMiddle3
                      {
                        OFFSET 0 3.11376 0
                        CHANNELS 6 Xposition Yposition Zposition Zrotation Xrotation Yrotation
                        End Site
                        {
                          OFFSET 0 2.03592 0
                        }
                      }
                    }
                  }
                  JOINT RightHandRing1
                  {
                    OFFSET 0 11.0778 -2.67464
                    CHANNELS 6 Xposition Yposition Zposition Zrotation Xrotation Yrotation
                    JOINT RightHandRing2
                    {
                      OFFSET 0 4.91015 0
                      CHANNELS 6 Xposition Yposition Zposition Zrotation Xrotation Yrotation
                      JOINT RightHandRing3
                      {
                        OFFSET 0 3.11376 0
                        CHANNELS 6 Xposition Yposition Zposition Zrotation Xrotation Yrotation
                        End Site
                        {
                          OFFSET 0 2.03592 0
                        }
                      }
                    }
                  }
                  JOINT RightHandPinky1
                  {
                    OFFSET 0 9.70055 -5.26943
                    CHANNELS 6 Xposition Yposition Zposition Zrotation Xrotation Yrotation
                    JOINT RightHandPinky2
                    {
                      OFFSET 0 3.95207 0
                      CHANNELS 6 Xposition Yposition Zposition Zrotation Xrotation Yrotation
                      JOINT RightHandPinky3
                      {
                        OFFSET 0 2.15568 0
                        CHANNELS 6 Xposition Yposition Zposition Zrotation Xrotation Yrotation
                        End Site
                        {
                          OFFSET 0 1.91616 0
                        }
                      }
                    }
                  }
                }
              }
            }
          }
          JOINT LeftShoulder
          {
            OFFSET 0 7.98668 5.19711
            CHANNELS 6 Xposition Yposition Zposition Zrotation Xrotation Yrotation
            JOINT LeftArm
            {
              OFFSET 0 18.3158 0
              CHANNELS 6 Xposition Yposition Zposition Zrotation Xrotation Yrotation
              JOINT LeftForeArm
              {
                OFFSET 0 28.8742 0
                CHANNELS 6 Xposition Yposition Zposition Zrotation Xrotation Yrotation
                JOINT LeftHand
                {
                  OFFSET 0 23.8772 0
                  CHANNELS 6 Xposition Yposition Zposition Zrotation Xrotation Yrotation
                  JOINT LeftHandThumb1
                  {
                    OFFSET 2.41094 4.67063 3.47303
                    CHANNELS 6 Xposition Yposition Zposition Zrotation Xrotation Yrotation
                    JOINT LeftHandThumb2
                    {
                      OFFSET 0 3.95207 0
                      CHANNELS 6 Xposition Yposition Zposition Zrotation Xrotation Yrotation
                      JOINT LeftHandThumb3
                      {
                        OFFSET 0 2.15568 0
                        CHANNELS 6 Xposition Yposition Zposition Zrotation Xrotation Yrotation
                        End Site
                        {
                          OFFSET 0 1.6 0
                        }
                      }
                    }
                  }
                  JOINT LeftHandIndex1
                  {
                    OFFSET 0 12.455 2.51496
                    CHANNELS 6 Xposition Yposition Zposition Zrotation Xrotation Yrotation
                    JOINT LeftHandIndex2
                    {
                      OFFSET 0 4.79039 0
                      CHANNELS 6 Xposition Yposition Zposition Zrotation Xrotation Yrotation
                      JOINT LeftHandIndex3
                      {
                        OFFSET 0 2.63472 0
                        CHANNELS 6 Xposition Yposition Zposition Zrotation Xrotation Yrotation
                        End Site
                        {
                          OFFSET 0 1.91616 0
                        }
                      }
                    }
                  }
                  JOINT LeftHandMiddle1
                  {
                    OFFSET 0 12.455 -0.0798399
                    CHANNELS 6 Xposition Yposition Zposition Zrotation Xrotation Yrotation
                    JOINT LeftHandMiddle2
                    {
                      OFFSET 0 5.38919 0
                      CHANNELS 6 Xposition Yposition Zposition Zrotation Xrotation Yrotation
                      JOINT LeftHandMiddle3
                      {
                        OFFSET 0 3.11376 0
                        CHANNELS 6 Xposition Yposition Zposition Zrotation Xrotation Yrotation
                        End Site
                        {
                          OFFSET 0 2.03592 0
                        }
                      }
                    }
                  }
                  JOINT LeftHandRing1
                  {
                    OFFSET 0 11.0778 -2.67464
                    CHANNELS 6 Xposition Yposition Zposition Zrotation Xrotation Yrotation
                    JOINT LeftHandRing2
                    {
                      OFFSET 0 4.91015 0
                      CHANNELS 6 Xposition Yposition Zposition Zrotation Xrotation Yrotation
                      JOINT LeftHandRing3
                      {
                        OFFSET 0 3.11376 0
                        CHANNELS 6 Xposition Yposition Zposition Zrotation Xrotation Yrotation
                        End Site
                        {
                          OFFSET 0 2.03592 0
                        }
                      }
                    }
                  }
                  JOINT LeftHandPinky1
                  {
                    OFFSET 0 9.70055 -5.26943
                    CHANNELS 6 Xposition Yposition Zposition Zrotation Xrotation Yrotation
                    JOINT LeftHandPinky2
                    {
                      OFFSET 0 3.95207 0
                      CHANNELS 6 Xposition Yposition Zposition Zrotation Xrotation Yrotation
                      JOINT LeftHandPinky3
                      {
                        OFFSET 0 2.15568 0
                        CHANNELS 6 Xposition Yposition Zposition Zrotation Xrotation Yrotation
                        End Site
                        {
                          OFFSET 0 1.91616 0
                        }
                      }
                    }
                  }
                }
              }
            }
          }
        }
      }
    }
  }
  JOINT RightUpLeg
  {
    OFFSET -10.0656 0 0
    CHANNELS 6 Xposition Yposition Zposition Zrotation Xrotation Yrotation
    JOINT RightLeg
    {
      OFFSET 0 -42.9874 0
      CHANNELS 6 Xposition Yposition Zposition Zrotation Xrotation Yrotation
      JOINT RightFoot
      {
        OFFSET 0 -44.625 0
        CHANNELS 6 Xposition Yposition Zposition Zrotation Xrotation Yrotation
        JOINT RightForeFoot
        {
          OFFSET 0 -3.74821 0
          CHANNELS 6 Xposition Yposition Zposition Zrotation Xrotation Yrotation
          JOINT RightToeBase
          {
            OFFSET 0 0 14.6792
            CHANNELS 6 Xposition Yposition Zposition Zrotation Xrotation Yrotation
            End Site
            {
              OFFSET 0 0 10.3604
            }
          }
        }
      }
    }
  }
  JOINT LeftUpLeg
  {
    OFFSET 10.0656 0 0
    CHANNELS 6 Xposition Yposition Zposition Zrotation Xrotation Yrotation
    JOINT LeftLeg
    {
      OFFSET 0 -42.9874 0
      CHANNELS 6 Xposition Yposition Zposition Zrotation Xrotation Yrotation
      JOINT LeftFoot
      {
        OFFSET 0 -44.625 0
        CHANNELS 6 Xposition Yposition Zposition Zrotation Xrotation Yrotation
        JOINT LeftForeFoot
        {
          OFFSET 0 -3.74821 0
          CHANNELS 6 Xposition Yposition Zposition Zrotation Xrotation Yrotation
          JOINT LeftToeBase
          {
            OFFSET 0 0 14.6792
            CHANNELS 6 Xposition Yposition Zposition Zrotation Xrotation Yrotation
            End Site
            {
              OFFSET 0 0 10.6728
            }
          }
        }
      }
    }
  }
}
MOTION
Frames:	4
Frame Time:	0.00833333
11.7892 91.9939 -25.4042 -6.97347 10.7647 -173.803 8.88178e-016 14.0932 -1.51142 -6.49085 8.06681 -0.116501 -3.55271e-015 8.6966 0 -2.15125 6.36255 0.844969 -3.55271e-015 8.6966 1.77636e-015 -1.84908 2.70885 0.0697834 -3.55271e-015 8.6966 -1.77636e-015 2.99289 1.53926 -1.21957 0 11.1813 1.11813 -0.586492 7.38482 -0.268389 0 5.70631 7.10543e-015 -0.462871 -4.9957 -4.62714 0 5.70631 -3.55271e-015 -0.0224642 -18.8917 -0.373126 0 7.98668 5.19711 102.423 -14.5144 3.16007 2.84217e-014 18.3158 -1.77636e-015 51.0686 26.1978 -17.5814 0 28.8742 0 -179.99 78.2842 179.851 0 23.8772 1.42109e-014 10.9544 -4.66437 -0.000264101 -2.41094 4.67063 3.47303 4.74254 9.54509 -0.787604 0 3.95207 0 9.54166e-015 -6.36111e-015 6.36111e-015 1.42109e-014 2.15568 7.10543e-015 -0 0 7.95139e-015 0 12.455 2.51496 1.28163 0 -1.43125e-014 -1.42109e-014 4.79039 7.10543e-015 6.36111e-015 0 -0 0 2.63472 0 -3.18055e-015 -3.18055e-015 1.59028e-015 -1.42109e-014 12.455 -0.0798399 12.3132 3.18055e-015 -7.95139e-015 -1.42109e-014 5.38919 1.42109e-014 -3.18055e-015 -3.18055e-015 1.59028e-015 -1.42109e-014 3.11376 7.10543e-015 -3.18055e-015 0 1.59028e-015 0 11.0778 -2.67464 24.3112 -1.59028e-015 -6.36111e-015 0 4.91015 0 -3.18055e-015 -3.18055e-015 3.18055e-015 0 3.11376 0 -6.36111e-015 -1.59028e-015 -0 -1.42109e-014 9.70055 -5.26943 54.6508 0 -6.36111e-015 -1.42109e-014 3.95207 -1.42109e-014 1.59028e-015 -2.38542e-015 3.18055e-015 -1.42109e-014 2.15568 0 -7.06225e-031 6.36111e-015 6.36111e-015 0 7.98668 5.19711 -102.424 -12.2054 -2.66664 0 18.3158 0 -57.0391 14.9603 31.9343 -7.10543e-015 28.8742 0 179.999 85.4639 171.147 -7.10543e-015 23.8772 0 -12.3828 0.450723 -7.13732e-005 2.41094 4.67063 3.47303 9.33197 36.2296 -5.54747 0 3.95207 0 3.18055e-015 6.36111e-015 -0 0 2.15568 -1.42109e-014 3.18055e-015 6.36111e-015 3.18055e-015 -7.10543e-015 12.455 2.51496 8.65848 -1.98785e-015 -1.39149e-015 0 4.79039 0 -0 0 1.98785e-016 0 2.63472 0 -3.18055e-015 -7.95139e-016 1.39149e-015 -7.10543e-015 12.455 -0.0798399 -6.46388 -2.38542e-015 3.18055e-015 0 5.38919 0 -3.18055e-015 0 -2.78299e-015 0 3.11376 0 3.18055e-015 -1.98785e-015 3.18055e-015 -7.10543e-015 11.0778 -2.67464 -22.3549 -1.98785e-015 -3.97569e-016 0 4.91015 -1.42109e-014 -3.18055e-015 7.95139e-016 -7.95139e-016 0 3.11376 0 -3.18055e-015 -7.95139e-016 -3.97569e-016 -7.10543e-015 9.70055 -5.26943 -53.9222 -4.12478e-015 7.95139e-016 7.10543e-015 3.95207 0 -3.7932e-032 -2.73329e-015 -7.95139e-016 7.10543e-015 2.15568 1.42109e-014 -7.95139e-016 -9.93923e-016 -0 -10.0656 0 0 -6.09154 6.50394 -9.98342 0 -42.9874 0 4.01835e-016 17.2606 2.49791e-015 3.55271e-015 -44.625 -3.55271e-015 -2.57634 -17.3364 -5.2108 0 -3.74821 -3.55271e-015 -4.96962e-016 0 -3.18055e-015 0 0 14.6792 -1.03745e-016 13.9624 -3.27739e-015 10.0656 0 0 -0.611978 9.631 21.6982 1.77636e-015 -42.9874 0 7.81464e-016 18.7498 -3.3588e-015 -8.88178e-016 -44.625 0 -3.30786 -9.76861 -3.90263 0 -3.74821 0 3.97569e-016 0 6.36111e-015 8.88178e-016 0 14.6792 7.88699e-017 -0.710361 6.3616e-015 
11.7979 92.0022 -25.4451 -6.93995 10.8654 -174.005 8.88178e-016 14.0932 -1.51142 -6.42344 8.04147 -0.118107 0 8.6966 -3.55271e-015 -2.14354 6.3909 0.840195 -3.55271e-015 8.6966 0 -1.8315 2.71198 0.0346397 -3.55271e-015 8.6966 -1.77636e-015 3.05158 1.53574 -1.23428 0 11.1813 1.11813 -0.559079 7.51858 -0.247842 0 5.70631 3.55271e-015 -0.490568 -4.89273 -4.56776 3.55271e-015 5.70631 0 -0.065478 -18.7711 -0.364965 3.55271e-015 7.98668 5.19711 102.427 -14.5534 3.16946 -2.84217e-014 18.3158 1.77636e-015 51.1063 26.5283 -17.0992 0 28.8742 -3.55271e-015 -180 78.0411 179.537 1.42109e-014 23.8772 0 10.8839 -4.52193 1.59524e-015 -2.41094 4.67063 3.47303 4.82738 9.29457 -0.781472 0 3.95207 1.42109e-014 6.36111e-015 3.18055e-015 -4.77083e-015 -1.42109e-014 2.15568 -1.42109e-014 0 0 -3.18055e-015 -1.42109e-014 12.455 2.51496 1.4546 -3.18055e-015 4.77083e-015 0 4.79039 0 3.18055e-015 0 -1.59028e-015 1.42109e-014 2.63472 1.42109e-014 -1.27222e-014 -6.36111e-015 -1.59028e-015 -1.42109e-014 12.455 -0.0798399 12.5327 0 -3.18055e-015 0 5.38919 1.42109e-014 -6.36111e-015 0 4.77083e-015 -1.42109e-014 3.11376 -7.10543e-015 3.18055e-015 -3.18055e-015 -0 0 11.0778 -2.67464 24.5098 0 -3.18055e-015 0 4.91015 0 9.54166e-015 0 3.18055e-015 0 3.11376 -1.42109e-014 1.76556e-031 -3.18055e-015 3.18055e-015 -1.42109e-014 9.70055 -5.26943 54.8554 -4.77083e-015 3.18055e-015 0 3.95207 -7.10543e-015 -4.77083e-015 -5.56597e-015 -3.18055e-015 0 2.15568 0 -1.59028e-015 -5.56597e-015 -6.36111e-015 3.55271e-015 7.98668 5.19711 -102.401 -12.195 -2.65938 0 18.3158 1.77636e-015 -56.9161 15.0694 31.6626 0 28.8742 0 -180 85.4857 170.957 7.10543e-015 23.8772 -1.42109e-014 -12.2361 0.432147 -3.18065e-015 2.41094 4.67063 3.47303 9.24888 36.1256 -5.4838 0 3.95207 -7.10543e-015 0 6.36111e-015 -0 0 2.15568 1.42109e-014 0 0 -0 0 12.455 2.51496 8.83614 2.38542e-015 -1.98785e-015 7.10543e-015 4.79039 1.42109e-014 1.37935e-032 -7.95139e-016 9.93923e-016 0 2.63472 0 -6.36111e-015 0 9.93923e-016 0 12.455 -0.0798399 -6.33958 3.97569e-016 -3.57812e-015 -7.10543e-015 5.38919 1.42109e-014 -3.18055e-015 0 -3.97569e-016 7.10543e-015 3.11376 -2.84217e-014 -6.36111e-015 7.95139e-016 -1.98785e-015 0 11.0778 -2.67464 -22.3826 0 -6.36111e-015 0 4.91015 -2.84217e-014 -3.18055e-015 -1.59028e-015 7.95139e-016 1.42109e-014 3.11376 0 -3.18055e-015 -1.19271e-015 -1.59028e-015 0 9.70055 -5.26943 -54.1318 2.23633e-015 -8.74653e-015 -7.10543e-015 3.95207 -1.42109e-014 -3.97569e-016 -1.83876e-015 -0 -7.10543e-015 2.15568 0 -3.97569e-016 -2.98177e-016 7.95139e-016 -10.0656 1.42109e-014 0 -6.06984 6.61598 -9.83129 0 -42.9874 0 -8.93286e-017 17.1887 3.32925e-015 -3.55271e-015 -44.625 0 -2.55342 -17.3088 -5.14283 3.55271e-015 -3.74821 -3.55271e-015 -9.93923e-017 1.59028e-015 3.18055e-015 7.10543e-015 2.22045e-016 14.6792 -7.91034e-016 13.9666 3.27745e-015 10.0656 0 0 -0.62222 9.82993 21.8854 0 -42.9874 0 2.98177e-016 18.629 -0 0 -44.625 -1.77636e-015 -3.32248 -9.75989 -3.88777 8.88178e-016 -3.74821 0 8.82781e-032 1.59028e-015 -3.18055e-015 2.66454e-015 0 14.6792 -3.97569e-016 -0.699428 -0 
11.807 92.0083 -25.4822 -6.90045 10.955 -174.176 -1.77636e-015 14.0932 -1.51142 -6.35361 8.02861 -0.12385 0 8.6966 0 -2.13191 6.41385 0.833747 -3.55271e-015 8.6966 0 -1.80602 2.70363 -0.0145729 -3.55271e-015 8.6966 0 3.11601 1.52961 -1.24848 0 11.1813 1.11813 -0.533194 7.67093 -0.255642 3.55271e-015 5.70631 0 -0.523628 -4.82615 -4.53837 0 5.70631 0 -0.108079 -18.7002 -0.358707 0 7.98668 5.19711 102.409 -14.6085 3.17635 -2.84217e-014 18.3158 3.55271e-015 51.3934 26.7705 -16.3788 1.42109e-014 28.8742 0 -179.999 77.9458 179.462 0 23.8772 1.42109e-014 10.5364 -4.37851 -0.001308 -2.41094 4.67063 3.47303 4.67474 9.13603 -0.744488 -1.42109e-014 3.95207 0 -7.06225e-031 -6.36111e-015 -6.36111e-015 0 2.15568 0 -3.18055e-015 3.18055e-015 -6.36111e-015 -1.42109e-014 12.455 2.51496 1.53135 0 4.77083e-015 -1.42109e-014 4.79039 1.42109e-014 1.76556e-031 -6.36111e-015 1.59028e-015 0 2.63472 7.10543e-015 0 0 -1.59028e-015 -1.42109e-014 12.455 -0.0798399 12.5752 6.36111e-015 -1.59028e-015 -1.42109e-014 5.38919 7.10543e-015 5.29669e-031 6.36111e-015 -4.77083e-015 -1.42109e-014 3.11376 0 1.59028e-014 -3.18055e-015 -1.59028e-015 -1.42109e-014 11.0778 -2.67464 24.4754 6.36111e-015 6.36111e-015 1.42109e-014 4.91015 0 -3.18055e-015 -3.18055e-015 -0 0 3.11376 7.10543e-015 -6.36111e-015 -3.18055e-015 -0 -1.42109e-014 9.70055 -5.26943 54.7177 3.97569e-015 9.54166e-015 1.42109e-014 3.95207 -1.42109e-014 -4.41391e-032 7.95139e-016 3.18055e-015 0 2.15568 1.42109e-014 0 4.77083e-015 -0 0 7.98668 5.19711 -102.333 -12.199 -2.64515 0 18.3158 0 -56.918 15.2752 31.3394 7.10543e-015 28.8742 -3.55271e-015 -179.996 85.4183 170.772 0 23.8772 1.42109e-014 -12.0209 0.386049 -0.000259658 2.41094 4.67063 3.47303 9.13448 36.0291 -5.40301 7.10543e-015 3.95207 0 2.64834e-031 -9.54166e-015 1.59028e-015 0 2.15568 0 -1.05934e-030 1.27222e-014 4.77083e-015 7.10543e-015 12.455 2.51496 9.10102 0 5.36719e-015 0 4.79039 0 3.18055e-015 0 -1.19271e-015 0 2.63472 0 3.18055e-015 1.59028e-015 -1.19271e-015 7.10543e-015 12.455 -0.0798399 -6.12513 -7.95139e-016 -0 0 5.38919 1.42109e-014 -3.18055e-015 3.97569e-016 1.98785e-015 7.10543e-015 3.11376 -1.42109e-014 4.41391e-032 1.59028e-015 -1.59028e-015 1.42109e-014 11.0778 -2.67464 -22.3716 3.97569e-016 -5.1684e-015 0 4.91015 -1.42109e-014 6.89673e-032 1.98785e-015 -1.98785e-015 -1.42109e-014 3.11376 1.42109e-014 3.18055e-015 1.59028e-015 -7.95139e-016 7.10543e-015 9.70055 -5.26943 -54.3643 5.56597e-015 -1.43125e-014 7.10543e-015 3.95207 0 4.13804e-032 -2.98177e-015 7.95139e-016 0 2.15568 0 -7.95139e-016 -3.03147e-015 1.59028e-015 -10.0656 -1.42109e-014 0 -6.02805 6.74331 -9.71029 -3.55271e-015 -42.9874 0 9.52429e-016 17.0812 -8.31831e-015 -3.55271e-015 -44.625 0 -2.53437 -17.2765 -5.10098 0 -3.74821 0 -1.98785e-016 7.95139e-016 -0 -3.55271e-015 -2.22045e-016 14.6792 -4.93329e-016 13.9746 3.27756e-015 10.0656 -1.42109e-014 0 -0.618308 10.004 22.0262 -1.77636e-015 -42.9874 3.55271e-015 2.13094e-015 18.5206 -6.70855e-015 8.88178e-016 -44.625 1.77636e-015 -3.34795 -9.74913 -3.86538 8.88178e-016 -3.74821 0 -0 -7.95139e-016 -0 -1.77636e-015 0 14.6792 -0 -0.696563 -0 
11.8224 92.0107 -25.5076 -6.86065 11.0445 -174.348 -1.77636e-015 14.0932 -1.51142 -6.28379 8.01575 -0.129576 0 8.6966 0 -2.12029 6.4368 0.827293 0 8.6966 -1.77636e-015 -1.78054 2.69527 -0.0637814 0 8.6966 3.55271e-015 3.18044 1.52346 -1.26267 0 11.1813 1.11813 -0.50728 7.82328 -0.263514 0 5.70631 3.55271e-015 -0.556719 -4.75958 -4.50894 3.55271e-015 5.70631 -3.55271e-015 -0.15067 -18.6293 -0.352397 0 7.98668 5.19711 102.391 -14.6636 3.18322 2.84217e-014 18.3158 0 51.6777 27.0159 -15.6581 0 28.8742 0 -179.999 77.8506 179.387 -1.42109e-014 23.8772 0 10.1891 -4.23508 -0.00174369 -2.41094 4.67063 3.47303 4.52227 8.97739 -0.707946 0 3.95207 7.10543e-015 -3.18055e-015 0 -4.77083e-015 -1.42109e-014 2.15568 1.42109e-014 -9.54166e-015 -3.18055e-015 -4.77083e-015 0 12.455 2.51496 1.60811 -3.18055e-015 -7.15625e-015 0 4.79039 7.10543e-015 -8.82781e-032 -3.18055e-015 -1.59028e-015 1.42109e-014 2.63472 7.10543e-015 -3.18055e-015 3.18055e-015 -2.38542e-015 0 12.455 -0.0798399 12.6177 -9.54166e-015 -4.77083e-015 -2.84217e-014 5.38919 7.10543e-015 -7.06225e-031 -6.36111e-015 -6.36111e-015 0 3.11376 -7.10543e-015 3.18055e-015 -3.18055e-015 -0 0 11.0778 -2.67464 24.4411 -6.36111e-015 -7.95139e-015 0 4.91015 7.10543e-015 5.29669e-031 -6.36111e-015 4.77083e-015 0 3.11376 0 3.18055e-015 -3.18055e-015 1.59028e-015 0 9.70055 -5.26943 54.58 -7.95139e-015 -9.54166e-015 -1.42109e-014 3.95207 7.10543e-015 -0 -2.38542e-015 -0 0 2.15568 1.42109e-014 1.59028e-015 -1.59028e-015 -9.54166e-015 0 7.98668 5.19711 -102.264 -12.203 -2.63091 0 18.3158 3.55271e-015 -56.9188 15.4811 31.0159 7.10543e-015 28.8742 0 -179.995 85.3509 170.59 -7.10543e-015 23.8772 2.84217e-014 -11.8058 0.33995 -0.00034621 2.41094 4.67063 3.47303 9.02039 35.9324 -5.32256 0 3.95207 0 -1.76556e-031 -6.36111e-015 -1.59028e-015 7.10543e-015 2.15568 7.10543e-015 -3.18055e-015 -9.54166e-015 -1.59028e-015 0 12.455 2.51496 9.36589 -7.95139e-016 -2.78299e-015 -7.10543e-015 4.79039 0 6.36111e-015 1.59028e-015 1.19271e-015 0 2.63472 0 -2.48282e-032 -7.95139e-016 -1.78906e-015 -7.10543e-015 12.455 -0.0798399 -5.91069 1.19271e-015 -1.19271e-015 -7.10543e-015 5.38919 0 3.18055e-015 0 3.97569e-016 0 3.11376 0 -3.18055e-015 1.59028e-015 3.97569e-016 0 11.0778 -2.67464 -22.3605 2.38542e-015 -2.38542e-015 -1.42109e-014 4.91015 1.42109e-014 6.36111e-015 1.98785e-015 7.95139e-016 0 3.11376 -1.42109e-014 6.36111e-015 3.97569e-016 -0 0 9.70055 -5.26943 -54.5967 2.93207e-015 -7.95139e-016 0 3.95207 -1.42109e-014 -1.59028e-015 1.39149e-015 -0 0 2.15568 1.42109e-014 -7.95139e-016 2.93207e-015 -0 -10.0656 0 0 -5.98653 6.87073 -9.58935 0 -42.9874 0 6.32155e-016 16.9737 -9.14489e-015 0 -44.625 0 -2.51534 -17.2442 -5.05916 0 -3.74821 0 -2.98177e-016 7.95139e-016 1.59028e-015 0 0 14.6792 0 13.9826 -0 10.0656 1.42109e-014 0 -0.614828 10.1781 22.167 8.88178e-016 -42.9874 0 -2.02987e-016 18.4122 -1.00565e-014 0 -44.625 -1.77636e-015 -3.37342 -9.73838 -3.84299 -8.88178e-016 -3.74821 1.77636e-015 -0 -7.95139e-016 -0 8.88178e-016 0 14.6792 -7.56629e-016 -0.693698 3.18079e-015 
